ffmpeg started on 2016-12-07 at 16:08:02
Report written to "Output/x264/results/ffmpeg/crowd_run_2160p50slow13000k.log"
Command line:
Tools/ffmpeg/ffmpeg -benchmark -y -i Input/y4m/crowd_run_2160p50.y4m -c:v libx264 -preset slow -b:v 13000k -an Output/x264/encoded/crowd_run_2160p50slow13000k.mkv
ffmpeg version N-82227-gdb23fde Copyright (c) 2000-2016 the FFmpeg developers
  built with gcc 5.4.0 (Ubuntu 5.4.0-6ubuntu1~16.04.2) 20160609
  configuration: --prefix=/home/jaroslav/ffmpeg_build --pkg-config-flags=--static --extra-cflags=-I/home/jaroslav/ffmpeg_build/include --extra-ldflags=-L/home/jaroslav/ffmpeg_build/lib --bindir=/home/jaroslav/bin --enable-gpl --enable-libass --enable-libfdk-aac --enable-libfreetype --enable-libmp3lame --enable-libopus --enable-libtheora --enable-libvorbis --enable-libvpx --enable-libx264 --enable-libx265 --enable-nvenc --enable-libmfx --enable-libxvid --enable-libgsm --enable-libopencore-amrnb --enable-version3 --enable-nonfree
  libavutil      55. 35.100 / 55. 35.100
  libavcodec     57. 66.101 / 57. 66.101
  libavformat    57. 57.100 / 57. 57.100
  libavdevice    57.  2.100 / 57.  2.100
  libavfilter     6. 66.100 /  6. 66.100
  libswscale      4.  3.100 /  4.  3.100
  libswresample   2.  4.100 /  2.  4.100
  libpostproc    54.  2.100 / 54.  2.100
Input #0, yuv4mpegpipe, from 'Input/y4m/crowd_run_2160p50.y4m':
  Duration: 00:00:10.00, start: 0.000000, bitrate: 4976642 kb/s
    Stream #0:0: Video: rawvideo (I420 / 0x30323449), yuv420p(progressive), 3840x2160, SAR 1:1 DAR 16:9, 50 fps, 50 tbr, 50 tbn, 50 tbc
[libx264 @ 0x31731c0] using SAR=1/1
[libx264 @ 0x31731c0] using cpu capabilities: MMX2 SSE2Fast SSSE3 SSE4.2 AVX FMA3 AVX2 LZCNT BMI2
[libx264 @ 0x31731c0] profile High, level 5.2
[libx264 @ 0x31731c0] 264 - core 148 - H.264/MPEG-4 AVC codec - Copyleft 2003-2016 - http://www.videolan.org/x264.html - options: cabac=1 ref=5 deblock=1:0:0 analyse=0x3:0x113 me=hex subme=8 psy=1 psy_rd=1.00:0.00 mixed_ref=1 me_range=16 chroma_me=1 trellis=2 8x8dct=1 cqm=0 deadzone=21,11 fast_pskip=1 chroma_qp_offset=-2 threads=6 lookahead_threads=1 sliced_threads=0 nr=0 decimate=1 interlaced=0 bluray_compat=0 constrained_intra=0 bframes=3 b_pyramid=2 b_adapt=1 b_bias=0 direct=3 weightb=1 open_gop=0 weightp=2 keyint=250 keyint_min=25 scenecut=40 intra_refresh=0 rc_lookahead=50 rc=abr mbtree=1 bitrate=13000 ratetol=1.0 qcomp=0.60 qpmin=0 qpmax=69 qpstep=4 ip_ratio=1.40 aq=1:1.00
Output #0, matroska, to 'Output/x264/encoded/crowd_run_2160p50slow13000k.mkv':
  Metadata:
    encoder         : Lavf57.57.100
    Stream #0:0: Video: h264 (libx264) (H264 / 0x34363248), yuv420p, 3840x2160 [SAR 1:1 DAR 16:9], q=-1--1, 13000 kb/s, 50 fps, 1k tbn, 50 tbc
    Metadata:
      encoder         : Lavc57.66.101 libx264
    Side data:
      cpb: bitrate max/min/avg: 0/0/13000000 buffer size: 0 vbv_delay: -1
Stream mapping:
  Stream #0:0 -> #0:0 (rawvideo (native) -> h264 (libx264))
Press [q] to stop, [?] for help
frame=    7 fps=0.0 q=0.0 size=       0kB time=00:00:00.00 bitrate=N/A speed=   0x    frame=   12 fps= 10 q=0.0 size=       0kB time=00:00:00.00 bitrate=N/A speed=   0x    frame=   19 fps= 11 q=0.0 size=       0kB time=00:00:00.00 bitrate=N/A speed=   0x    frame=   31 fps= 14 q=0.0 size=       0kB time=00:00:00.00 bitrate=N/A speed=   0x    frame=   36 fps= 13 q=0.0 size=       0kB time=00:00:00.00 bitrate=N/A speed=   0x    frame=   46 fps= 14 q=0.0 size=       0kB time=00:00:00.00 bitrate=N/A speed=   0x    frame=   52 fps= 13 q=0.0 size=       0kB time=00:00:00.00 bitrate=N/A speed=   0x    frame=   57 fps=8.2 q=0.0 size=       0kB time=00:00:00.00 bitrate=N/A speed=   0x    frame=   62 fps=7.5 q=32.0 size=       1kB time=-00:00:00.01 bitrate=N/A speed=N/A    frame=   63 fps=7.1 q=32.0 size=       1kB time=00:00:00.00 bitrate=5872.0kbits/s speed=0.000113x    frame=   67 fps=7.0 q=35.0 size=       1kB time=00:00:00.08 bitrate=  72.5kbits/s speed=0.00851x    frame=   70 fps=7.0 q=45.0 size=       1kB time=00:00:00.14 bitrate=  41.6kbits/s speed=0.0141x    frame=   73 fps=6.9 q=49.0 size=       1kB time=00:00:00.20 bitrate=  29.2kbits/s speed=0.019x    frame=   79 fps=7.0 q=49.0 size=       1kB time=00:00:00.32 bitrate=  18.3kbits/s speed=0.0283x    frame=   85 fps=7.2 q=47.0 size=       1kB time=00:00:00.44 bitrate=  13.3kbits/s speed=0.0372x    frame=   89 fps=7.2 q=47.0 size=       1kB time=00:00:00.52 bitrate=  11.3kbits/s speed=0.0421x    frame=   95 fps=7.2 q=47.0 size=       1kB time=00:00:00.64 bitrate=   9.2kbits/s speed=0.0485x    frame=  101 fps=7.3 q=46.0 size=       1kB time=00:00:00.76 bitrate=   7.7kbits/s speed=0.0553x    frame=  104 fps=7.3 q=46.0 size=       1kB time=00:00:00.82 bitrate=   7.2kbits/s speed=0.0574x    frame=  109 fps=7.3 q=46.0 size=       1kB time=00:00:00.92 bitrate=   6.4kbits/s speed=0.062x    frame=  115 fps=7.3 q=46.0 size=       1kB time=00:00:01.04 bitrate=   5.6kbits/s speed=0.0663x    frame=  119 fps=7.3 q=46.0 size=       1kB time=00:00:01.12 bitrate=   5.2kbits/s speed=0.0691x    frame=  123 fps=7.3 q=45.0 size=       1kB time=00:00:01.20 bitrate=   4.9kbits/s speed=0.0717x    frame=  127 fps=7.4 q=45.0 size=       1kB time=00:00:01.28 bitrate=   4.6kbits/s speed=0.0742x    frame=  131 fps=7.3 q=45.0 size=       1kB time=00:00:01.36 bitrate=   4.3kbits/s speed=0.076x    frame=  137 fps=7.4 q=45.0 size=       1kB time=00:00:01.48 bitrate=   4.0kbits/s speed=0.0804x    frame=  140 fps=7.4 q=45.0 size=       1kB time=00:00:01.54 bitrate=   3.8kbits/s speed=0.0812x    frame=  144 fps=7.4 q=45.0 size=       1kB time=00:00:01.62 bitrate=   3.6kbits/s speed=0.0831x    frame=  148 fps=7.4 q=45.0 size=       1kB time=00:00:01.70 bitrate=   3.5kbits/s speed=0.085x    frame=  153 fps=7.4 q=44.0 size=       1kB time=00:00:01.80 bitrate=   3.3kbits/s speed=0.0876x    frame=  155 fps=7.3 q=44.0 size=       1kB time=00:00:01.84 bitrate=   3.2kbits/s speed=0.0873x    frame=  161 fps=7.4 q=44.0 size=       1kB time=00:00:01.96 bitrate=   3.0kbits/s speed=0.0905x    frame=  163 fps=7.3 q=44.0 size=       1kB time=00:00:02.00 bitrate=   2.9kbits/s speed=0.0901x    frame=  168 fps=7.4 q=44.0 size=       1kB time=00:00:02.10 bitrate=   2.8kbits/s speed=0.0925x    frame=  171 fps=7.3 q=44.0 size=       1kB time=00:00:02.16 bitrate=   2.7kbits/s speed=0.0927x    frame=  176 fps=7.4 q=44.0 size=       1kB time=00:00:02.26 bitrate=   2.6kbits/s speed=0.0948x    frame=  179 fps=7.3 q=44.0 size=       1kB time=00:00:02.32 bitrate=   2.5kbits/s speed=0.0951x    frame=  185 fps=7.4 q=44.0 size=       1kB time=00:00:02.44 bitrate=   2.4kbits/s speed=0.0977x    frame=  187 fps=7.3 q=44.0 size=       1kB time=00:00:02.48 bitrate=   2.4kbits/s speed=0.0973x    frame=  192 fps=7.4 q=44.0 size=       1kB time=00:00:02.58 bitrate=   2.3kbits/s speed=0.0991x    frame=  195 fps=7.3 q=44.0 size=       1kB time=00:00:02.64 bitrate=   2.2kbits/s speed=0.0991x    frame=  202 fps=7.4 q=44.0 size=       1kB time=00:00:02.78 bitrate=   2.1kbits/s speed=0.102x    frame=  204 fps=7.3 q=44.0 size=       1kB time=00:00:02.82 bitrate=   2.1kbits/s speed=0.101x    frame=  210 fps=7.4 q=44.0 size=    5142kB time=00:00:02.94 bitrate=14323.9kbits/s speed=0.104x    frame=  211 fps=7.3 q=44.0 size=    5142kB time=00:00:02.96 bitrate=14227.1kbits/s speed=0.103x    frame=  215 fps=7.3 q=44.0 size=    5142kB time=00:00:03.04 bitrate=13852.8kbits/s speed=0.103x    frame=  219 fps=7.3 q=43.0 size=    5142kB time=00:00:03.12 bitrate=13497.8kbits/s speed=0.104x    frame=  223 fps=7.3 q=43.0 size=    5142kB time=00:00:03.20 bitrate=13160.4kbits/s speed=0.105x    frame=  228 fps=7.3 q=43.0 size=    5142kB time=00:00:03.30 bitrate=12761.7kbits/s speed=0.106x    frame=  231 fps=7.3 q=43.0 size=    5142kB time=00:00:03.36 bitrate=12533.9kbits/s speed=0.106x    frame=  236 fps=7.3 q=43.0 size=    5142kB time=00:00:03.46 bitrate=12171.8kbits/s speed=0.107x    frame=  239 fps=7.3 q=43.0 size=    5142kB time=00:00:03.52 bitrate=11964.4kbits/s speed=0.107x    frame=  245 fps=7.3 q=43.0 size=    5142kB time=00:00:03.64 bitrate=11570.0kbits/s speed=0.109x    frame=  247 fps=7.2 q=43.0 size=    5142kB time=00:00:03.68 bitrate=11444.3kbits/s speed=0.108x    frame=  253 fps=7.3 q=43.0 size=    5142kB time=00:00:03.80 bitrate=11083.0kbits/s speed=0.11x    frame=  255 fps=7.2 q=43.0 size=    5142kB time=00:00:03.84 bitrate=10967.6kbits/s speed=0.109x    frame=  259 fps=7.2 q=43.0 size=    5142kB time=00:00:03.92 bitrate=10743.8kbits/s speed=0.11x    frame=  263 fps=7.2 q=43.0 size=    5142kB time=00:00:04.00 bitrate=10529.0kbits/s speed=0.11x    frame=  267 fps=7.2 q=43.0 size=    5142kB time=00:00:04.08 bitrate=10322.6kbits/s speed=0.111x    frame=  271 fps=7.2 q=43.0 size=    5142kB time=00:00:04.16 bitrate=10124.1kbits/s speed=0.111x    frame=  277 fps=7.3 q=43.0 size=    5142kB time=00:00:04.28 bitrate=9840.3kbits/s speed=0.112x    frame=  279 fps=7.2 q=43.0 size=    5142kB time=00:00:04.32 bitrate=9749.2kbits/s speed=0.111x    frame=  285 fps=7.2 q=43.0 size=    5142kB time=00:00:04.44 bitrate=9485.8kbits/s speed=0.113x    frame=  287 fps=7.2 q=43.0 size=    5142kB time=00:00:04.48 bitrate=9401.1kbits/s speed=0.112x    frame=  293 fps=7.2 q=43.0 size=    5142kB time=00:00:04.60 bitrate=9155.9kbits/s speed=0.114x    frame=  295 fps=7.2 q=43.0 size=    5142kB time=00:00:04.64 bitrate=9077.0kbits/s speed=0.113x    frame=  301 fps=7.2 q=43.0 size=    5142kB time=00:00:04.76 bitrate=8848.2kbits/s speed=0.114x    frame=  303 fps=7.1 q=43.0 size=    5142kB time=00:00:04.80 bitrate=8774.5kbits/s speed=0.113x    frame=  306 fps=7.0 q=40.0 size=    5142kB time=00:00:04.86 bitrate=8666.2kbits/s speed=0.112x    frame=  312 fps=7.1 q=43.0 size=    8180kB time=00:00:04.98 bitrate=13452.5kbits/s speed=0.113x    frame=  317 fps=7.1 q=43.0 size=    8180kB time=00:00:05.08 bitrate=13187.7kbits/s speed=0.114x    frame=  321 fps=7.1 q=43.0 size=    8180kB time=00:00:05.16 bitrate=12983.3kbits/s speed=0.114x    frame=  327 fps=7.1 q=43.0 size=    8180kB time=00:00:05.28 bitrate=12688.3kbits/s speed=0.115x    frame=  329 fps=7.1 q=43.0 size=    8180kB time=00:00:05.32 bitrate=12592.9kbits/s speed=0.114x    frame=  335 fps=7.1 q=43.0 size=    8180kB time=00:00:05.44 bitrate=12315.2kbits/s speed=0.115x    frame=  337 fps=7.1 q=43.0 size=    8180kB time=00:00:05.48 bitrate=12225.3kbits/s speed=0.115x    frame=  343 fps=7.1 q=43.0 size=    8180kB time=00:00:05.60 bitrate=11963.4kbits/s speed=0.116x    frame=  345 fps=7.1 q=43.0 size=    8180kB time=00:00:05.64 bitrate=11878.6kbits/s speed=0.115x    frame=  352 fps=7.1 q=43.0 size=    8180kB time=00:00:05.78 bitrate=11590.9kbits/s speed=0.117x    frame=  353 fps=7.0 q=43.0 size=    8180kB time=00:00:05.80 bitrate=11550.9kbits/s speed=0.116x    frame=  358 fps=7.1 q=43.0 size=    8180kB time=00:00:05.90 bitrate=11355.2kbits/s speed=0.116x    frame=  361 fps=7.1 q=43.0 size=    8180kB time=00:00:05.96 bitrate=11240.9kbits/s speed=0.116x    frame=  365 fps=7.1 q=43.0 size=    8180kB time=00:00:06.04 bitrate=11092.0kbits/s speed=0.117x    frame=  369 fps=7.0 q=43.0 size=    8180kB time=00:00:06.12 bitrate=10947.1kbits/s speed=0.117x    frame=  374 fps=7.1 q=43.0 size=    8180kB time=00:00:06.22 bitrate=10771.1kbits/s speed=0.118x    frame=  377 fps=7.0 q=43.0 size=    8180kB time=00:00:06.28 bitrate=10668.2kbits/s speed=0.117x    frame=  383 fps=7.1 q=43.0 size=    8180kB time=00:00:06.40 bitrate=10468.2kbits/s speed=0.118x    frame=  385 fps=7.0 q=43.0 size=    8180kB time=00:00:06.44 bitrate=10403.2kbits/s speed=0.118x    frame=  391 fps=7.1 q=43.0 size=    8180kB time=00:00:06.56 bitrate=10212.9kbits/s speed=0.119x    frame=  393 fps=7.0 q=43.0 size=    8180kB time=00:00:06.60 bitrate=10151.0kbits/s speed=0.118x    frame=  400 fps=7.1 q=43.0 size=    8180kB time=00:00:06.74 bitrate=9940.2kbits/s speed=0.119x    frame=  401 fps=7.0 q=43.0 size=    8180kB time=00:00:06.76 bitrate=9910.8kbits/s speed=0.118x    frame=  407 fps=7.0 q=43.0 size=    8180kB time=00:00:06.88 bitrate=9738.0kbits/s speed=0.119x    frame=  409 fps=7.0 q=43.0 size=    8180kB time=00:00:06.92 bitrate=9681.7kbits/s speed=0.119x    frame=  414 fps=7.0 q=43.0 size=    8180kB time=00:00:07.02 bitrate=9543.8kbits/s speed=0.119x    frame=  417 fps=7.0 q=43.0 size=    8180kB time=00:00:07.08 bitrate=9462.9kbits/s speed=0.119x    frame=  423 fps=7.0 q=43.0 size=    8180kB time=00:00:07.20 bitrate=9305.2kbits/s speed=0.12x    frame=  425 fps=7.0 q=43.0 size=    8180kB time=00:00:07.24 bitrate=9253.8kbits/s speed=0.119x    frame=  429 fps=7.0 q=43.0 size=    8180kB time=00:00:07.32 bitrate=9152.7kbits/s speed=0.12x    frame=  433 fps=7.0 q=43.0 size=    8180kB time=00:00:07.40 bitrate=9053.8kbits/s speed=0.12x    frame=  437 fps=7.0 q=43.0 size=    8180kB time=00:00:07.48 bitrate=8956.9kbits/s speed=0.12x    frame=  441 fps=7.0 q=43.0 size=    8180kB time=00:00:07.56 bitrate=8862.2kbits/s speed=0.12x    frame=  445 fps=7.0 q=43.0 size=    8180kB time=00:00:07.64 bitrate=8769.4kbits/s speed=0.12x    frame=  450 fps=7.0 q=43.0 size=    8180kB time=00:00:07.74 bitrate=8656.1kbits/s speed=0.121x    frame=  453 fps=7.0 q=43.0 size=    8180kB time=00:00:07.80 bitrate=8589.5kbits/s speed=0.121x    frame=  457 fps=7.0 q=43.0 size=    8180kB time=00:00:07.88 bitrate=8502.3kbits/s speed=0.121x    frame=  462 fps=7.0 q=43.0 size=    8180kB time=00:00:07.98 bitrate=8395.8kbits/s speed=0.121x    frame=  465 fps=7.0 q=43.0 size=    8180kB time=00:00:08.04 bitrate=8333.2kbits/s speed=0.121x    frame=  472 fps=7.0 q=43.0 size=    8180kB time=00:00:08.18 bitrate=8190.6kbits/s speed=0.122x    frame=  474 fps=7.0 q=43.0 size=    8180kB time=00:00:08.22 bitrate=8150.7kbits/s speed=0.121x    frame=  479 fps=7.0 q=43.0 size=   13332kB time=00:00:08.32 bitrate=13125.4kbits/s speed=0.122x    frame=  481 fps=7.0 q=43.0 size=   13332kB time=00:00:08.36 bitrate=13062.6kbits/s speed=0.121x    frame=  487 fps=7.0 q=43.0 size=   13332kB time=00:00:08.48 bitrate=12877.8kbits/s speed=0.122x    frame=  489 fps=7.0 q=43.0 size=   13332kB time=00:00:08.52 bitrate=12817.3kbits/s speed=0.122x    frame=  495 fps=7.0 q=43.0 size=   13332kB time=00:00:08.64 bitrate=12639.3kbits/s speed=0.122x    frame=  497 fps=7.0 q=43.0 size=   13332kB time=00:00:08.68 bitrate=12581.1kbits/s speed=0.122x    frame=  500 fps=7.0 q=43.0 size=   13332kB time=00:00:08.74 bitrate=12494.7kbits/s speed=0.122x    frame=  500 fps=6.3 q=-1.0 Lsize=   15790kB time=00:00:09.94 bitrate=13012.2kbits/s speed=0.126x    
video:15786kB audio:0kB subtitle:0kB other streams:0kB global headers:0kB muxing overhead: 0.028847%
bench: utime=274.328s
bench: maxrss=2121748kB
[libx264 @ 0x31731c0] frame I:2     Avg QP:32.90  size:510430
[libx264 @ 0x31731c0] frame P:126   Avg QP:42.27  size: 63094
[libx264 @ 0x31731c0] frame B:372   Avg QP:45.39  size: 19337
[libx264 @ 0x31731c0] consecutive B-frames:  0.8%  0.0%  0.0% 99.2%
[libx264 @ 0x31731c0] mb I  I16..4: 15.1% 76.0%  9.0%
[libx264 @ 0x31731c0] mb P  I16..4:  2.0%  4.3%  0.0%  P16..4: 35.8%  6.1%  5.2%  0.0%  0.0%    skip:46.5%
[libx264 @ 0x31731c0] mb B  I16..4:  0.0%  0.1%  0.0%  B16..8: 41.9%  1.6%  0.1%  direct: 0.3%  skip:56.0%  L0:42.1% L1:57.2% BI: 0.7%
[libx264 @ 0x31731c0] final ratefactor: 34.92
[libx264 @ 0x31731c0] 8x8 transform intra:69.8% inter:86.7%
[libx264 @ 0x31731c0] direct mvs  spatial:98.9% temporal:1.1%
[libx264 @ 0x31731c0] coded y,uvDC,uvAC intra: 37.6% 53.9% 19.8% inter: 3.3% 5.8% 0.1%
[libx264 @ 0x31731c0] i16 v,h,dc,p: 36% 21%  6% 36%
[libx264 @ 0x31731c0] i8 v,h,dc,ddl,ddr,vr,hd,vl,hu:  8%  4%  5% 12% 16% 15% 15% 13% 11%
[libx264 @ 0x31731c0] i4 v,h,dc,ddl,ddr,vr,hd,vl,hu:  6%  3%  2% 14% 17% 15% 16% 12% 15%
[libx264 @ 0x31731c0] i8c dc,h,v,p: 48% 17% 18% 17%
[libx264 @ 0x31731c0] Weighted P-Frames: Y:1.6% UV:0.8%
[libx264 @ 0x31731c0] ref P L0: 66.1%  7.7% 15.9%  4.9%  5.2%  0.1%
[libx264 @ 0x31731c0] ref B L0: 92.3%  5.8%  1.4%  0.5%
[libx264 @ 0x31731c0] ref B L1: 98.4%  1.6%
[libx264 @ 0x31731c0] kb/s:12931.15
